<?xml version="1.0" encoding="utf-8"?>
<svg xmlns="http://www.w3.org/2000/svg">
<symbol id="account-black" viewBox="0 0 52 55"><title>Account Black</title><path d="M27.945 29.798l5.366-3.225a14.11 14.11 0 0 0 6.465-8.737c.917-3.68.347-7.497-1.607-10.748C35.582 2.782 31.035.207 26.005.2h-.003c-5.03.007-9.577 2.582-12.165 6.888-4.032 6.711-1.853 15.453 4.858 19.485l5.366 3.225L0 44.256V55h52V44.252L27.945 29.798zm-8.219-4.939c-5.767-3.465-7.639-10.975-4.174-16.741 2.223-3.699 6.13-5.912 10.452-5.918 4.322.006 8.229 2.219 10.452 5.918a12.12 12.12 0 0 1 1.381 9.235 12.116 12.116 0 0 1-5.555 7.506l-6.278 3.772-6.278-3.772zM50 53H2v-7.612l24.003-14.423L50 45.383V53z" fill="#000" fill-rule="nonzero"/>
</symbol>
<symbol id="account-white" viewBox="0 0 52 55"><title>Account White</title><path d="M27.945 29.798l5.366-3.225a14.11 14.11 0 0 0 6.465-8.737c.917-3.68.347-7.497-1.607-10.748C35.582 2.782 31.035.207 26.005.2h-.003c-5.03.007-9.577 2.582-12.165 6.888-4.032 6.711-1.853 15.453 4.858 19.485l5.366 3.225L0 44.256V55h52V44.252L27.945 29.798zm-8.219-4.939c-5.767-3.465-7.639-10.975-4.174-16.741 2.223-3.699 6.13-5.912 10.452-5.918 4.322.006 8.229 2.219 10.452 5.918a12.12 12.12 0 0 1 1.381 9.235 12.116 12.116 0 0 1-5.555 7.506l-6.278 3.772-6.278-3.772zM50 53H2v-7.612l24.003-14.423L50 45.383V53z" fill="#FFF" fill-rule="nonzero"/>
</symbol>
<symbol id="audiooff-black" viewBox="0 0 56 48"><title>Audiooff Black</title><path d="M55.707 16.707l-1.414-1.414L47 22.586l-7.293-7.293-1.414 1.414L45.586 24l-7.293 7.293 1.414 1.414L47 25.414l7.293 7.293 1.414-1.414L48.414 24l7.293-7.293zM13.137 13H0v22h13.137l.004.002L34 47.535V.465L13.141 12.998l-.004.002zM32 4v40L13.692 33H2V15h11.692L32 4z" fill="#000" fill-rule="nonzero"/>
</symbol>
<symbol id="audiooff-white" viewBox="0 0 56 48"><title>Audiooff White</title><path d="M55.707 16.707l-1.414-1.414L47 22.586l-7.293-7.293-1.414 1.414L45.586 24l-7.293 7.293 1.414 1.414L47 25.414l7.293 7.293 1.414-1.414L48.414 24l7.293-7.293zM13.137 13H0v22h13.137l.004.002L34 47.535V.465L13.141 12.998l-.004.002zM32 4v40L13.692 33H2V15h11.692L32 4z" fill="#FFF" fill-rule="nonzero"/>
</symbol>
<symbol id="audioon-black" viewBox="0 0 55 48"><title>Audioon Black</title><path d="M13.137 13H0v22h13.137l.004.002L34 47.535V.465L13.141 12.998l-.004.002zM32 4v40L13.692 33H2V15h11.692L32 4zm7.386 9.399c2.645 2.756 4.281 6.488 4.281 10.601s-1.636 7.844-4.281 10.601l1.752 1.053c2.805-3.08 4.529-7.16 4.529-11.653s-1.724-8.574-4.529-11.653l-1.752 1.051zm9.865-5.928l-1.737 1.044A24.54 24.54 0 0 1 53 24a24.54 24.54 0 0 1-5.486 15.485l1.737 1.044A26.546 26.546 0 0 0 55 24a26.546 26.546 0 0 0-5.749-16.529z" fill="#000" fill-rule="nonzero"/>
</symbol>
<symbol id="audioon-white" viewBox="0 0 55 48"><title>Audioon White</title><path d="M13.137 13H0v22h13.137l.004.002L34 47.535V.465L13.141 12.998l-.004.002zM32 4v40L13.692 33H2V15h11.692L32 4zm7.386 9.399c2.645 2.756 4.281 6.488 4.281 10.601s-1.636 7.844-4.281 10.601l1.752 1.053c2.805-3.08 4.529-7.16 4.529-11.653s-1.724-8.574-4.529-11.653l-1.752 1.051zm9.865-5.928l-1.737 1.044A24.54 24.54 0 0 1 53 24a24.54 24.54 0 0 1-5.486 15.485l1.737 1.044A26.546 26.546 0 0 0 55 24a26.546 26.546 0 0 0-5.749-16.529z" fill="#FFF" fill-rule="nonzero"/>
</symbol>
<symbol id="close-black" viewBox="0 0 42 42"><title>Close Black</title>
</symbol>
<symbol id="close-white" viewBox="0 0 42 42"><title>Close White</title>
</symbol>
<symbol id="confirmation-black" viewBox="0 0 56 56"><title>Confirmation Black</title><path d="M22.731 34.672l-6.687-6.687-1.414 1.414 8.101 8.102 18.337-18.337-1.414-1.414-16.923 16.922zM28 0C12.536 0 0 12.536 0 28s12.536 28 28 28 28-12.536 28-28S43.464 0 28 0zm0 54C13.664 54 2 42.336 2 28S13.664 2 28 2s26 11.664 26 26-11.664 26-26 26z" fill="#000" fill-rule="nonzero"/>
</symbol>
<symbol id="confirmation-white" viewBox="0 0 56 56"><title>Confirmation White</title><path d="M22.731 34.672l-6.687-6.687-1.414 1.414 8.101 8.102 18.337-18.337-1.414-1.414-16.923 16.922zM28 0C12.536 0 0 12.536 0 28s12.536 28 28 28 28-12.536 28-28S43.464 0 28 0zm0 54C13.664 54 2 42.336 2 28S13.664 2 28 2s26 11.664 26 26-11.664 26-26 26z" fill="#FFF" fill-rule="nonzero"/>
</symbol>
<symbol id="delete-black" viewBox="0 0 40 56"><title>Delete Black</title><path d="M31.518 2.717a38.21 38.21 0 0 0-23.036 0C3.439 4.31 0 9.127 0 14.569V56h40V14.569c0-5.442-3.439-10.259-8.482-11.852zM38 54H2V17h36v37zM2 15v-.431c0-4.61 2.847-8.606 7.084-9.945a36.205 36.205 0 0 1 21.831.001C35.153 5.963 38 9.96 38 14.569V15H2z" fill="#000" fill-rule="nonzero"/>
</symbol>
<symbol id="delete-white" viewBox="0 0 40 56"><title>Delete White</title><path d="M31.518 2.717a38.21 38.21 0 0 0-23.036 0C3.439 4.31 0 9.127 0 14.569V56h40V14.569c0-5.442-3.439-10.259-8.482-11.852zM38 54H2V17h36v37zM2 15v-.431c0-4.61 2.847-8.606 7.084-9.945a36.205 36.205 0 0 1 21.831.001C35.153 5.963 38 9.96 38 14.569V15H2z" fill="#FFF" fill-rule="nonzero"/>
</symbol>
<symbol id="delivery-black" viewBox="0 0 56 56"><title>Delivery Black</title><path d="M28 0C12.536 0 0 12.536 0 28s12.536 28 28 28 28-12.536 28-28S43.464 0 28 0zm25.975 27H39.65a39.149 39.149 0 0 0-9.746-24.923C43.025 3.033 53.471 13.761 53.975 27zM18.35 29h19.3c-.245 9.235-3.851 17.647-9.65 24.043-5.799-6.396-9.406-14.808-9.65-24.043zm0-2c.245-9.235 3.851-17.647 9.65-24.043C33.799 9.353 37.405 17.765 37.65 27h-19.3zm7.746-24.923A39.149 39.149 0 0 0 16.35 27H2.025c.504-13.239 10.95-23.967 24.071-24.923zM2.025 29H16.35a39.149 39.149 0 0 0 9.746 24.923C12.975 52.967 2.529 42.239 2.025 29zm27.879 24.923A39.149 39.149 0 0 0 39.65 29h14.324c-.503 13.239-10.949 23.967-24.07 24.923z" fill="#000" fill-rule="nonzero"/>
</symbol>
<symbol id="delivery-white" viewBox="0 0 56 56"><title>Delivery White</title><path d="M28 0C12.536 0 0 12.536 0 28s12.536 28 28 28 28-12.536 28-28S43.464 0 28 0zm25.975 27H39.65a39.149 39.149 0 0 0-9.746-24.923C43.025 3.033 53.471 13.761 53.975 27zM18.35 29h19.3c-.245 9.235-3.851 17.647-9.65 24.043-5.799-6.396-9.406-14.808-9.65-24.043zm0-2c.245-9.235 3.851-17.647 9.65-24.043C33.799 9.353 37.405 17.765 37.65 27h-19.3zm7.746-24.923A39.149 39.149 0 0 0 16.35 27H2.025c.504-13.239 10.95-23.967 24.071-24.923zM2.025 29H16.35a39.149 39.149 0 0 0 9.746 24.923C12.975 52.967 2.529 42.239 2.025 29zm27.879 24.923A39.149 39.149 0 0 0 39.65 29h14.324c-.503 13.239-10.949 23.967-24.07 24.923z" fill="#FFF" fill-rule="nonzero"/>
</symbol>
<symbol id="designers-black" viewBox="0 0 53 55"><title>Designers Black</title><path d="M33.006 53l18.026-30H27.406L17.511.775.937 38h2.19l5.788-13h17.192l5.788 13h2.189l-5.788-13h19.2L29.471 55H53v-2H33.006zM9.805 23l7.706-17.308L25.217 23H9.805z" fill="#000" fill-rule="nonzero"/>
</symbol>
<symbol id="designers-white" viewBox="0 0 53 55"><title>Designers White</title><path d="M33.006 53l18.026-30H27.406L17.511.775.937 38h2.19l5.788-13h17.192l5.788 13h2.189l-5.788-13h19.2L29.471 55H53v-2H33.006zM9.805 23l7.706-17.308L25.217 23H9.805z" fill="#FFF" fill-rule="nonzero"/>
</symbol>
<symbol id="discover-black" viewBox="0 0 44 56"><title>Discover Black</title><path d="M44 35.815l-8-4.586V21h-2v9.082l-15.571-8.927c.817-.25 1.48-.455 1.665-.517a10.557 10.557 0 0 0 2.239-1.065c4.843-2.911 6.416-9.219 3.506-14.062-2.91-4.843-9.218-6.416-14.062-3.506A10.184 10.184 0 0 0 7.111 8.31a10.19 10.19 0 0 0 1.166 7.768c.061.098 1.506 2.414 3.656 3.659l1.493.856C5.921 22.771.702 29.687.702 37.534c0 9.731 7.918 17.649 17.649 17.649C28.083 55.181 36 47.264 36 37.532v-3.999l8 4.586v-2.304zM9.985 15.036c-2.343-3.898-1.077-8.975 2.821-11.318A8.253 8.253 0 0 1 24.124 6.54c2.342 3.899 1.076 8.976-2.86 11.341-.008.005-.799.524-1.804.859-.277.093-1.848.573-3.412 1.05l-3.118-1.788c-1.701-.985-2.94-2.958-2.945-2.966zM34 37.532c0 8.629-7.02 15.649-15.648 15.649-8.629 0-15.649-7.02-15.649-15.649 0-7.051 4.748-13.263 11.545-15.105l1.558-.472L34 32.387v5.145z" fill="#000" fill-rule="nonzero"/>
</symbol>
<symbol id="discover-white" viewBox="0 0 44 56"><title>Discover White</title><path d="M44 35.815l-8-4.586V21h-2v9.082l-15.571-8.927c.817-.25 1.48-.455 1.665-.517a10.557 10.557 0 0 0 2.239-1.065c4.843-2.911 6.416-9.219 3.506-14.062-2.91-4.843-9.218-6.416-14.062-3.506A10.184 10.184 0 0 0 7.111 8.31a10.19 10.19 0 0 0 1.166 7.768c.061.098 1.506 2.414 3.656 3.659l1.493.856C5.921 22.771.702 29.687.702 37.534c0 9.731 7.918 17.649 17.649 17.649C28.083 55.181 36 47.264 36 37.532v-3.999l8 4.586v-2.304zM9.985 15.036c-2.343-3.898-1.077-8.975 2.821-11.318A8.253 8.253 0 0 1 24.124 6.54c2.342 3.899 1.076 8.976-2.86 11.341-.008.005-.799.524-1.804.859-.277.093-1.848.573-3.412 1.05l-3.118-1.788c-1.701-.985-2.94-2.958-2.945-2.966zM34 37.532c0 8.629-7.02 15.649-15.648 15.649-8.629 0-15.649-7.02-15.649-15.649 0-7.051 4.748-13.263 11.545-15.105l1.558-.472L34 32.387v5.145z" fill="#FFF" fill-rule="nonzero"/>
</symbol>
<symbol id="down_arrow-black" viewBox="0 0 50 27"><title>Down_arrow Black</title>
</symbol>
<symbol id="down_arrow-white" viewBox="0 0 50 27"><title>Down_arrow White</title>
</symbol>
<symbol id="edit-black" viewBox="0 0 50 50"><title>Edit Black</title><path d="M47.938 2.053a6.993 6.993 0 0 0-4.977-2.061c-1.88 0-3.648.732-4.978 2.062L8.027 32.01.06 49.944l17.923-7.98 29.955-29.956A6.992 6.992 0 0 0 50 7.03c0-1.88-.732-3.647-2.062-4.977zm-1.414 8.541L16.831 40.288 4 46l5.704-12.839L39.397 3.468a5.024 5.024 0 0 1 3.563-1.476 5.038 5.038 0 0 1 3.564 8.602z" fill="#000" fill-rule="nonzero"/>
</symbol>
<symbol id="edit-white" viewBox="0 0 50 50"><title>Edit White</title><path d="M47.938 2.053a6.993 6.993 0 0 0-4.977-2.061c-1.88 0-3.648.732-4.978 2.062L8.027 32.01.06 49.944l17.923-7.98 29.955-29.956A6.992 6.992 0 0 0 50 7.03c0-1.88-.732-3.647-2.062-4.977zm-1.414 8.541L16.831 40.288 4 46l5.704-12.839L39.397 3.468a5.024 5.024 0 0 1 3.563-1.476 5.038 5.038 0 0 1 3.564 8.602z" fill="#FFF" fill-rule="nonzero"/>
</symbol>
<symbol id="error-black" viewBox="0 0 56 56"><title>Error Black</title><path d="M37.293 17.293L28 26.586l-9.293-9.293-1.414 1.414L26.586 28l-9.293 9.293 1.414 1.414L28 29.414l9.293 9.293 1.414-1.414L29.414 28l9.293-9.293-1.414-1.414zM28 0C12.536 0 0 12.536 0 28s12.536 28 28 28 28-12.536 28-28S43.464 0 28 0zm0 54C13.664 54 2 42.336 2 28S13.664 2 28 2s26 11.664 26 26-11.664 26-26 26z" fill="#000" fill-rule="nonzero"/>
</symbol>
<symbol id="error-white" viewBox="0 0 56 56"><title>Error White</title><path d="M37.293 17.293L28 26.586l-9.293-9.293-1.414 1.414L26.586 28l-9.293 9.293 1.414 1.414L28 29.414l9.293 9.293 1.414-1.414L29.414 28l9.293-9.293-1.414-1.414zM28 0C12.536 0 0 12.536 0 28s12.536 28 28 28 28-12.536 28-28S43.464 0 28 0zm0 54C13.664 54 2 42.336 2 28S13.664 2 28 2s26 11.664 26 26-11.664 26-26 26z" fill="#FFF" fill-rule="nonzero"/>
</symbol>
<symbol id="exit_fullscreen-black" viewBox="0 0 58 46"><title>Exit_fullscreen Black</title><path d="M54 40c0 2.206-1.794 4-4 4H6c-2.206 0-4-1.794-4-4V8c0-2.206 1.794-4 4-4h31V2H6a6 6 0 0 0-6 6v32a6 6 0 0 0 6 6h44a6 6 0 0 0 6-6V21h-2v19zm3.291-37.877L55.876.71 44 12.586V2h-2v14h14v-2H45.414L57.291 2.123z" fill="#000" fill-rule="nonzero"/>
</symbol>
<symbol id="exit_fullscreen-white" viewBox="0 0 58 46"><title>Exit_fullscreen White</title><path d="M54 40c0 2.206-1.794 4-4 4H6c-2.206 0-4-1.794-4-4V8c0-2.206 1.794-4 4-4h31V2H6a6 6 0 0 0-6 6v32a6 6 0 0 0 6 6h44a6 6 0 0 0 6-6V21h-2v19zm3.291-37.877L55.876.71 44 12.586V2h-2v14h14v-2H45.414L57.291 2.123z" fill="#FFF" fill-rule="nonzero"/>
</symbol>
<symbol id="favourites-black" viewBox="0 0 64 62"><title>Favourites Black</title><path d="M32 6.608L38.74 26h19.452L42.915 37.938l5.27 19.068L32 46.09 15.815 57.005l5.27-19.068L5.808 26H25.26L32 6.608zm0-6.091L23.837 24H0l18.802 14.691-6.357 22.999L32 48.502 51.555 61.69l-6.356-22.999L64 24H40.163L32 .517z" fill="#000" fill-rule="nonzero"/>
</symbol>
<symbol id="favourites-white" viewBox="0 0 64 62"><title>Favourites White</title><path d="M32 6.608L38.74 26h19.452L42.915 37.938l5.27 19.068L32 46.09 15.815 57.005l5.27-19.068L5.808 26H25.26L32 6.608zm0-6.091L23.837 24H0l18.802 14.691-6.357 22.999L32 48.502 51.555 61.69l-6.356-22.999L64 24H40.163L32 .517z" fill="#FFF" fill-rule="nonzero"/>
</symbol>
<symbol id="favourites_overlay-black" viewBox="0 0 64 62"><title>Favourites_overlay Black</title><path d="M52.918 32.659L64 24H50.292c-2.879-5.1-7.823-8.886-13.68-10.213L32 .517l-4.612 13.27C21.53 15.114 16.586 18.9 13.708 24H0l11.082 8.659c-.041.529-.082 1.058-.082 1.597 0 5.27 1.981 10.088 5.217 13.785L12.445 61.69l11.787-7.949A20.773 20.773 0 0 0 32 55.256c2.743 0 5.36-.547 7.768-1.515l11.787 7.949-3.772-13.649C51.019 44.344 53 39.526 53 34.256c0-.539-.041-1.068-.082-1.597zM58.192 26l-5.572 4.354A20.753 20.753 0 0 0 51.293 26h6.899zM32 6.608l2.36 6.791a20.913 20.913 0 0 0-2.36-.143c-.799 0-1.584.055-2.36.143L32 6.608zM5.808 26h6.899a20.872 20.872 0 0 0-1.327 4.354L5.808 26zm10.007 31.005l2.02-7.312a21.131 21.131 0 0 0 4.275 3.066l-6.295 4.246zM41.89 52.76a21.131 21.131 0 0 0 4.275-3.066l2.021 7.312-6.296-4.246zm-9.89.496c-10.477 0-19-8.523-19-19s8.523-19 19-19 19 8.524 19 19c0 10.477-8.523 19-19 19z" fill="#000" fill-rule="nonzero"/>
</symbol>
<symbol id="favourites_overlay-white" viewBox="0 0 64 62"><title>Favourites_overlay White</title><path d="M52.918 32.659L64 24H50.292c-2.879-5.1-7.823-8.886-13.68-10.213L32 .517l-4.612 13.27C21.53 15.114 16.586 18.9 13.708 24H0l11.082 8.659c-.041.529-.082 1.058-.082 1.597 0 5.27 1.981 10.088 5.217 13.785L12.445 61.69l11.787-7.949A20.773 20.773 0 0 0 32 55.256c2.743 0 5.36-.547 7.768-1.515l11.787 7.949-3.772-13.649C51.019 44.344 53 39.526 53 34.256c0-.539-.041-1.068-.082-1.597zM58.192 26l-5.572 4.354A20.753 20.753 0 0 0 51.293 26h6.899zM32 6.608l2.36 6.791a20.913 20.913 0 0 0-2.36-.143c-.799 0-1.584.055-2.36.143L32 6.608zM5.808 26h6.899a20.872 20.872 0 0 0-1.327 4.354L5.808 26zm10.007 31.005l2.02-7.312a21.131 21.131 0 0 0 4.275 3.066l-6.295 4.246zM41.89 52.76a21.131 21.131 0 0 0 4.275-3.066l2.021 7.312-6.296-4.246zm-9.89.496c-10.477 0-19-8.523-19-19s8.523-19 19-19 19 8.524 19 19c0 10.477-8.523 19-19 19z" fill="#FFF" fill-rule="nonzero"/>
</symbol>
<symbol id="favouriteson-black" viewBox="0 0 64 62"><title>Favouriteson Black</title>
</symbol>
<symbol id="favouriteson-white" viewBox="0 0 64 62"><title>Favouriteson White</title>
</symbol>
<symbol id="filter-black" viewBox="0 0 56 56"><title>Filter Black</title><path d="M28 0C12.536 0 0 12.536 0 28s12.536 28 28 28 28-12.536 28-28S43.464 0 28 0zm0 54C13.664 54 2 42.336 2 28S13.664 2 28 2s26 11.664 26 26-11.664 26-26 26zm-4-16h8v-2h-8v2zm-6-8h20v-2H18v2zm-5-8h30v-2H13v2z" fill="#000" fill-rule="nonzero"/>
</symbol>
<symbol id="filter-white" viewBox="0 0 56 56"><title>Filter White</title><path d="M28 0C12.536 0 0 12.536 0 28s12.536 28 28 28 28-12.536 28-28S43.464 0 28 0zm0 54C13.664 54 2 42.336 2 28S13.664 2 28 2s26 11.664 26 26-11.664 26-26 26zm-4-16h8v-2h-8v2zm-6-8h20v-2H18v2zm-5-8h30v-2H13v2z" fill="#FFF" fill-rule="nonzero"/>
</symbol>
<symbol id="fullscreen-black" viewBox="0 0 56 44"><title>Fullscreen Black</title><path d="M54 38c0 2.206-1.794 4-4 4H6c-2.206 0-4-1.794-4-4V6c0-2.206 1.794-4 4-4h29V0H6a6 6 0 0 0-6 6v32a6 6 0 0 0 6 6h44a6 6 0 0 0 6-6V21h-2v17zM41 0v2h11.515L39.852 14.338l1.396 1.433L54 3.345V15h2V0H41z" fill="#000" fill-rule="nonzero"/>
</symbol>
<symbol id="fullscreen-white" viewBox="0 0 56 44"><title>Fullscreen White</title><path d="M54 38c0 2.206-1.794 4-4 4H6c-2.206 0-4-1.794-4-4V6c0-2.206 1.794-4 4-4h29V0H6a6 6 0 0 0-6 6v32a6 6 0 0 0 6 6h44a6 6 0 0 0 6-6V21h-2v17zM41 0v2h11.515L39.852 14.338l1.396 1.433L54 3.345V15h2V0H41z" fill="#FFF" fill-rule="nonzero"/>
</symbol>
<symbol id="giftcards-black" viewBox="0 0 56 48"><title>Giftcards Black</title><path d="M0 0v48h56V0H0zm2 2h14.727L2 10.849V2zm52 44H38.181L54 36.495V46zm0-11.839L34.297 46H2V13.182L20.61 2H54v32.161zM16 30h24v-2H16v2zm0-11h24v-2H16v2z" fill="#000" fill-rule="nonzero"/>
</symbol>
<symbol id="giftcards-white" viewBox="0 0 56 48"><title>Giftcards White</title><path d="M0 0v48h56V0H0zm2 2h14.727L2 10.849V2zm52 44H38.181L54 36.495V46zm0-11.839L34.297 46H2V13.182L20.61 2H54v32.161zM16 30h24v-2H16v2zm0-11h24v-2H16v2z" fill="#FFF" fill-rule="nonzero"/>
</symbol>
<symbol id="home-black" viewBox="0 0 54 56"><title>Home Black</title><path d="M27 .786L0 17.009V56h54V17.009L27 .786zm0 2.333L52 18.14V29H2V18.14L27 3.119zM2 54V31h50v23H2z" fill="#000" fill-rule="nonzero"/>
</symbol>
<symbol id="home-white" viewBox="0 0 54 56"><title>Home White</title><path d="M27 .786L0 17.009V56h54V17.009L27 .786zm0 2.333L52 18.14V29H2V18.14L27 3.119zM2 54V31h50v23H2z" fill="#FFF" fill-rule="nonzero"/>
</symbol>
<symbol id="information-black" viewBox="0 0 56 56"><title>Information Black</title><path d="M28 14.25a1.75 1.75 0 1 0 0 3.5 1.75 1.75 0 0 0 0-3.5zM27 41h2V23h-2v18zm1-41C12.536 0 0 12.536 0 28s12.536 28 28 28 28-12.536 28-28S43.464 0 28 0zm0 54C13.664 54 2 42.336 2 28S13.664 2 28 2s26 11.664 26 26-11.664 26-26 26z" fill="#000" fill-rule="nonzero"/>
</symbol>
<symbol id="information-white" viewBox="0 0 56 56"><title>Information White</title><path d="M28 14.25a1.75 1.75 0 1 0 0 3.5 1.75 1.75 0 0 0 0-3.5zM27 41h2V23h-2v18zm1-41C12.536 0 0 12.536 0 28s12.536 28 28 28 28-12.536 28-28S43.464 0 28 0zm0 54C13.664 54 2 42.336 2 28S13.664 2 28 2s26 11.664 26 26-11.664 26-26 26z" fill="#FFF" fill-rule="nonzero"/>
</symbol>
<symbol id="left_arrow-black" viewBox="0 0 27 50"><title>Left_arrow Black</title>
</symbol>
<symbol id="left_arrow-white" viewBox="0 0 27 50"><title>Left_arrow White</title>
</symbol>
<symbol id="minus-black" viewBox="0 0 44 2"><title>Minus Black</title>
</symbol>
<symbol id="minus-white" viewBox="0 0 44 2"><title>Minus White</title>
</symbol>
<symbol id="mrpbag-black" viewBox="0 0 56 56"><title>Mrpbag Black</title><path d="M39 14v-2.25c0-6.065-4.935-11-11-11s-11 4.935-11 11V14H0v42h56V14H39zm-20-2.25c0-4.963 4.037-9 9-9s9 4.037 9 9V14H19v-2.25zM37 16v38H19V16h18zM2 16h15v38H2V16zm52 38H39V16h15v38z" fill="#000" fill-rule="nonzero"/>
</symbol>
<symbol id="mrpbag-white" viewBox="0 0 56 56"><title>Mrpbag White</title><path d="M39 14v-2.25c0-6.065-4.935-11-11-11s-11 4.935-11 11V14H0v42h56V14H39zm-20-2.25c0-4.963 4.037-9 9-9s9 4.037 9 9V14H19v-2.25zM37 16v38H19V16h18zM2 16h15v38H2V16zm52 38H39V16h15v38z" fill="#FFF" fill-rule="nonzero"/>
</symbol>
<symbol id="mrpbag_overlay-black" viewBox="0 0 56 56"><title>Mrpbag_overlay Black</title><path d="M39 14v-2.25c0-6.065-4.935-11-11-11s-11 4.935-11 11V14H0v42h56V14H39zm-20-2.25c0-4.963 4.037-9 9-9s9 4.037 9 9V14H19v-2.25zM54 54H2V16h52v38z" fill="#000" fill-rule="nonzero"/>
</symbol>
<symbol id="mrpbag_overlay-white" viewBox="0 0 56 56"><title>Mrpbag_overlay White</title><path d="M39 14v-2.25c0-6.065-4.935-11-11-11s-11 4.935-11 11V14H0v42h56V14H39zm-20-2.25c0-4.963 4.037-9 9-9s9 4.037 9 9V14H19v-2.25zM54 54H2V16h52v38z" fill="#FFF" fill-rule="nonzero"/>
</symbol>
<symbol id="napbag-black" viewBox="0 0 56 56"><title>Napbag Black</title><path d="M39.251 14l-3.685-8.276a8.475 8.475 0 0 0-.401-.75A8.301 8.301 0 0 0 28.001.919H28a8.3 8.3 0 0 0-7.164 4.056 8.59 8.59 0 0 0-.409.769L16.751 14H0v42h56V14H39.251zM22.245 6.577a6.33 6.33 0 0 1 .306-.573 6.317 6.317 0 0 1 5.45-3.085 6.317 6.317 0 0 1 5.451 3.086c.112.188.214.378.297.553L37.062 14H18.94l3.305-7.423zM54 54H2V16h13.86l-4.897 11h2.189l4.897-11h19.904l4.898 11h2.189l-4.897-11H54v38z" fill="#000" fill-rule="nonzero"/>
</symbol>
<symbol id="napbag-white" viewBox="0 0 56 56"><title>Napbag White</title><path d="M39.251 14l-3.685-8.276a8.475 8.475 0 0 0-.401-.75A8.301 8.301 0 0 0 28.001.919H28a8.3 8.3 0 0 0-7.164 4.056 8.59 8.59 0 0 0-.409.769L16.751 14H0v42h56V14H39.251zM22.245 6.577a6.33 6.33 0 0 1 .306-.573 6.317 6.317 0 0 1 5.45-3.085 6.317 6.317 0 0 1 5.451 3.086c.112.188.214.378.297.553L37.062 14H18.94l3.305-7.423zM54 54H2V16h13.86l-4.897 11h2.189l4.897-11h19.904l4.898 11h2.189l-4.897-11H54v38z" fill="#FFF" fill-rule="nonzero"/>
</symbol>
<symbol id="napbag_overlay-black" viewBox="0 0 56 56"><title>Napbag_overlay Black</title><path d="M39.251 14l-3.685-8.276a8.475 8.475 0 0 0-.401-.75A8.301 8.301 0 0 0 28.001.919H28a8.3 8.3 0 0 0-7.164 4.056 8.59 8.59 0 0 0-.409.769L16.751 14H0v42h56V14H39.251zM22.245 6.577a6.33 6.33 0 0 1 .306-.573 6.317 6.317 0 0 1 5.45-3.085 6.317 6.317 0 0 1 5.451 3.086c.112.188.214.378.297.553L37.062 14H18.94l3.305-7.423zM54 54H2V16h52v38z" fill="#000" fill-rule="nonzero"/>
</symbol>
<symbol id="napbag_overlay-white" viewBox="0 0 56 56"><title>Napbag_overlay White</title><path d="M39.251 14l-3.685-8.276a8.475 8.475 0 0 0-.401-.75A8.301 8.301 0 0 0 28.001.919H28a8.3 8.3 0 0 0-7.164 4.056 8.59 8.59 0 0 0-.409.769L16.751 14H0v42h56V14H39.251zM22.245 6.577a6.33 6.33 0 0 1 .306-.573 6.317 6.317 0 0 1 5.45-3.085 6.317 6.317 0 0 1 5.451 3.086c.112.188.214.378.297.553L37.062 14H18.94l3.305-7.423zM54 54H2V16h52v38z" fill="#FFF" fill-rule="nonzero"/>
</symbol>
<symbol id="packaging-black" viewBox="0 0 56 56"><title>Packaging Black</title><path d="M42.833 12c.373-.378.709-.8.992-1.27a6.75 6.75 0 0 0-2.306-9.251 6.749 6.749 0 0 0-9.251 2.307l-4.273 7.11-4.265-7.097C21.816.613 17.665-.423 14.479 1.492A6.703 6.703 0 0 0 11.41 5.64 6.692 6.692 0 0 0 13.153 12H0v44h56V12H42.833zm-8.85-7.185a4.747 4.747 0 0 1 6.506-1.622A4.748 4.748 0 0 1 42.111 9.7 4.707 4.707 0 0 1 38.07 12h-8.404l4.317-7.185zM13.889 9.713a4.708 4.708 0 0 1-.536-3.589 4.71 4.71 0 0 1 2.159-2.917 4.747 4.747 0 0 1 6.507 1.622L26.325 12h-8.589a4.704 4.704 0 0 1-3.847-2.287zM2 14h15.73c.067.002.132.013.199.014H27V33H2V14zm0 40V35h25v19H2zm52 0H29V35h25v19zM29 33V14h25v19H29z" fill="#000" fill-rule="nonzero"/>
</symbol>
<symbol id="packaging-white" viewBox="0 0 56 56"><title>Packaging White</title><path d="M42.833 12c.373-.378.709-.8.992-1.27a6.75 6.75 0 0 0-2.306-9.251 6.749 6.749 0 0 0-9.251 2.307l-4.273 7.11-4.265-7.097C21.816.613 17.665-.423 14.479 1.492A6.703 6.703 0 0 0 11.41 5.64 6.692 6.692 0 0 0 13.153 12H0v44h56V12H42.833zm-8.85-7.185a4.747 4.747 0 0 1 6.506-1.622A4.748 4.748 0 0 1 42.111 9.7 4.707 4.707 0 0 1 38.07 12h-8.404l4.317-7.185zM13.889 9.713a4.708 4.708 0 0 1-.536-3.589 4.71 4.71 0 0 1 2.159-2.917 4.747 4.747 0 0 1 6.507 1.622L26.325 12h-8.589a4.704 4.704 0 0 1-3.847-2.287zM2 14h15.73c.067.002.132.013.199.014H27V33H2V14zm0 40V35h25v19H2zm52 0H29V35h25v19zM29 33V14h25v19H29z" fill="#FFF" fill-rule="nonzero"/>
</symbol>
<symbol id="pause-black" viewBox="0 0 38 44"><title>Pause Black</title><path d="M0 44h10V0H0v44zM28 0v44h10V0H28z" fill="#000" fill-rule="nonzero"/>
</symbol>
<symbol id="pause-white" viewBox="0 0 38 44"><title>Pause White</title><path d="M0 44h10V0H0v44zM28 0v44h10V0H28z" fill="#FFF" fill-rule="nonzero"/>
</symbol>
<symbol id="play-black" viewBox="0 0 37 44"><title>Play Black</title><path d="M0 44l36.614-22L0 0v44z" fill="#000" fill-rule="nonzero"/>
</symbol>
<symbol id="play-white" viewBox="0 0 37 44"><title>Play White</title><path d="M0 44l36.614-22L0 0v44z" fill="#FFF" fill-rule="nonzero"/>
</symbol>
<symbol id="plus-black" viewBox="0 0 48 48"><title>Plus Black</title>
</symbol>
<symbol id="plus-white" viewBox="0 0 48 48"><title>Plus White</title>
</symbol>
<symbol id="returns-black" viewBox="0 0 56 56"><title>Returns Black</title><path d="M25.907 18.707l-1.414-1.414L13.786 28l10.707 10.707 1.414-1.414L17.614 29H42v-2H17.614l8.293-8.293zM28 0C12.536 0 0 12.536 0 28s12.536 28 28 28 28-12.536 28-28S43.464 0 28 0zm0 54C13.664 54 2 42.336 2 28S13.664 2 28 2s26 11.664 26 26-11.664 26-26 26z" fill="#000" fill-rule="nonzero"/>
</symbol>
<symbol id="returns-white" viewBox="0 0 56 56"><title>Returns White</title><path d="M25.907 18.707l-1.414-1.414L13.786 28l10.707 10.707 1.414-1.414L17.614 29H42v-2H17.614l8.293-8.293zM28 0C12.536 0 0 12.536 0 28s12.536 28 28 28 28-12.536 28-28S43.464 0 28 0zm0 54C13.664 54 2 42.336 2 28S13.664 2 28 2s26 11.664 26 26-11.664 26-26 26z" fill="#FFF" fill-rule="nonzero"/>
</symbol>
<symbol id="right_arrow-black" viewBox="0 0 27 50"><title>Right_arrow Black</title>
</symbol>
<symbol id="right_arrow-white" viewBox="0 0 27 50"><title>Right_arrow White</title>
</symbol>
<symbol id="search-black" viewBox="0 0 44 55"><title>Search Black</title><path d="M40.855 11.004C36.729 4.137 29.448.333 21.98.333h-.001a21.9 21.9 0 0 0-11.308 3.145C.258 9.735-3.112 23.249 3.145 33.663c4.126 6.867 11.408 10.671 18.876 10.671 3.614 0 7.269-.904 10.633-2.771L40.728 55h2.333L34.35 40.502c9.59-6.51 12.548-19.44 6.505-29.498zm-8.556 28.47a19.96 19.96 0 0 1-10.278 2.86c-7.096 0-13.512-3.626-17.162-9.701C-.82 23.182 2.25 10.872 11.701 5.194a19.958 19.958 0 0 1 10.278-2.859h.001c7.095 0 13.51 3.627 17.16 9.701a19.86 19.86 0 0 1 2.262 15.136 19.866 19.866 0 0 1-9.103 12.302z" fill="#000" fill-rule="nonzero"/>
</symbol>
<symbol id="search-white" viewBox="0 0 44 55"><title>Search White</title><path d="M40.855 11.004C36.729 4.137 29.448.333 21.98.333h-.001a21.9 21.9 0 0 0-11.308 3.145C.258 9.735-3.112 23.249 3.145 33.663c4.126 6.867 11.408 10.671 18.876 10.671 3.614 0 7.269-.904 10.633-2.771L40.728 55h2.333L34.35 40.502c9.59-6.51 12.548-19.44 6.505-29.498zm-8.556 28.47a19.96 19.96 0 0 1-10.278 2.86c-7.096 0-13.512-3.626-17.162-9.701C-.82 23.182 2.25 10.872 11.701 5.194a19.958 19.958 0 0 1 10.278-2.859h.001c7.095 0 13.51 3.627 17.16 9.701a19.86 19.86 0 0 1 2.262 15.136 19.866 19.866 0 0 1-9.103 12.302z" fill="#FFF" fill-rule="nonzero"/>
</symbol>
<symbol id="shop-black" viewBox="0 0 50 50"><title>Shop Black</title><path d="M0 50h50v-2H0v2zM0 0v2h50V0H0zm0 26h50v-2H0v2z" fill="#000" fill-rule="nonzero"/>
</symbol>
<symbol id="shop-white" viewBox="0 0 50 50"><title>Shop White</title><path d="M0 50h50v-2H0v2zM0 0v2h50V0H0zm0 26h50v-2H0v2z" fill="#FFF" fill-rule="nonzero"/>
</symbol>
<symbol id="sprite"> Prite</symbol>
<symbol id="up_arrow-black" viewBox="0 0 50 27"><title>Up_arrow Black</title>
</symbol>
<symbol id="up_arrow-white" viewBox="0 0 50 27"><title>Up_arrow White</title>
</symbol>
<symbol id="warning-black" viewBox="0 0 56 56"><title>Warning Black</title><path d="M28 38.25a1.75 1.75 0 1 0 0 3.5 1.75 1.75 0 0 0 0-3.5zM29 15h-2v18h2V15zM28 0C12.536 0 0 12.536 0 28s12.536 28 28 28 28-12.536 28-28S43.464 0 28 0zm0 54C13.664 54 2 42.336 2 28S13.664 2 28 2s26 11.664 26 26-11.664 26-26 26z" fill="#000" fill-rule="nonzero"/>
</symbol>
<symbol id="warning-white" viewBox="0 0 56 56"><title>Warning White</title><path d="M28 38.25a1.75 1.75 0 1 0 0 3.5 1.75 1.75 0 0 0 0-3.5zM29 15h-2v18h2V15zM28 0C12.536 0 0 12.536 0 28s12.536 28 28 28 28-12.536 28-28S43.464 0 28 0zm0 54C13.664 54 2 42.336 2 28S13.664 2 28 2s26 11.664 26 26-11.664 26-26 26z" fill="#FFF" fill-rule="nonzero"/>
</symbol>
<symbol id="whatsnew-black" viewBox="0 0 58 53"><title>Whatsnew Black</title><path d="M52.576 2.232A11.113 11.113 0 0 0 44.112.967a11.108 11.108 0 0 0-6.879 5.09L29 19.76l-8.232-13.7C17.592.775 10.709-.941 5.424 2.234a11.104 11.104 0 0 0-5.09 6.879 11.103 11.103 0 0 0 1.265 8.464c2.029 3.377 5.595 5.405 9.544 5.424h15.909L9.027 53h2.333L29 23.644 46.639 53h2.333L30.946 23h15.916c3.944-.02 7.51-2.047 9.539-5.424a11.113 11.113 0 0 0 1.265-8.464 11.11 11.11 0 0 0-5.09-6.88zM11.148 21.001a9.123 9.123 0 0 1-7.834-4.454 9.126 9.126 0 0 1-1.039-6.951 9.123 9.123 0 0 1 4.18-5.649c4.34-2.607 9.991-1.198 12.599 3.142l8.359 13.912H11.148zm43.539-4.455A9.122 9.122 0 0 1 46.857 21h-16.27l8.359-13.912a9.12 9.12 0 0 1 5.649-4.18 9.119 9.119 0 0 1 6.95 1.039 9.124 9.124 0 0 1 4.18 5.648 9.12 9.12 0 0 1-1.038 6.951z" fill="#000" fill-rule="nonzero"/>
</symbol>
<symbol id="whatsnew-white" viewBox="0 0 58 53"><title>Whatsnew White</title><path d="M52.576 2.232A11.113 11.113 0 0 0 44.112.967a11.108 11.108 0 0 0-6.879 5.09L29 19.76l-8.232-13.7C17.592.775 10.709-.941 5.424 2.234a11.104 11.104 0 0 0-5.09 6.879 11.103 11.103 0 0 0 1.265 8.464c2.029 3.377 5.595 5.405 9.544 5.424h15.909L9.027 53h2.333L29 23.644 46.639 53h2.333L30.946 23h15.916c3.944-.02 7.51-2.047 9.539-5.424a11.113 11.113 0 0 0 1.265-8.464 11.11 11.11 0 0 0-5.09-6.88zM11.148 21.001a9.123 9.123 0 0 1-7.834-4.454 9.126 9.126 0 0 1-1.039-6.951 9.123 9.123 0 0 1 4.18-5.649c4.34-2.607 9.991-1.198 12.599 3.142l8.359 13.912H11.148zm43.539-4.455A9.122 9.122 0 0 1 46.857 21h-16.27l8.359-13.912a9.12 9.12 0 0 1 5.649-4.18 9.119 9.119 0 0 1 6.95 1.039 9.124 9.124 0 0 1 4.18 5.648 9.12 9.12 0 0 1-1.038 6.951z" fill="#FFF" fill-rule="nonzero"/>
</symbol></svg>